<?xml version="1.0" encoding="iso-8859-1"?>
<!-- Generator: Adobe Illustrator 19.0.0, SVG Export Plug-In . SVG Version: 6.00 Build 0)  -->
<svg version="1.1" id="Capa_1" xmlns="http://www.w3.org/2000/svg" xmlns:xlink="http://www.w3.org/1999/xlink" x="0px" y="0px"
	 viewBox="0 0 512 512" style="enable-background:new 0 0 512 512;" xml:space="preserve">
<g>
	<g>
		<path d="M256,0C114.517,0,0,114.497,0,256c0,141.483,114.497,256,256,256c141.483,0,256-114.497,256-256
			C512,114.517,397.503,0,256,0z M40,256c0-119.378,96.608-216,216-216c50.976,0,99.248,17.55,137.942,49.773l-77.981,77.981
			C312.276,163.597,306.916,161,301,161h-90c-10.068,0-18.567,7.485-19.84,17.473L188.291,201H156c-11.046,0-20,8.954-20,20v110
			c0,4.685,1.623,8.985,4.321,12.394l-50.548,50.548C57.55,355.248,40,306.976,40,256z M300.19,240.095
			c1.873,0.58,3.853,0.905,5.905,0.905H336v70H229.285L300.19,240.095z M176,307.715V241h29.905c10.068,0,18.567-7.485,19.84-17.473
			L228.614,201h54.101L176,307.715z M256,472c-50.976,0-99.248-17.55-137.942-49.773L189.285,351H356c11.046,0,20-8.954,20-20V221
			c0-11.046-8.954-20-20-20h-16.715l82.942-82.942C454.45,156.752,472,205.024,472,256C472,375.378,375.392,472,256,472z"/>
	</g>
</g>
<g>
</g>
<g>
</g>
<g>
</g>
<g>
</g>
<g>
</g>
<g>
</g>
<g>
</g>
<g>
</g>
<g>
</g>
<g>
</g>
<g>
</g>
<g>
</g>
<g>
</g>
<g>
</g>
<g>
</g>
</svg>
